<svg width="28" height="30" viewBox="0 0 28 30" fill="none" xmlns="http://www.w3.org/2000/svg">
<path d="M2.3335 12.5001L12.5425 3.74949C13.3947 3.01905 14.6057 3.01905 15.4578 3.74949L25.6668 12.5001" stroke="#2863C3" stroke-width="1.5" stroke-linecap="round" stroke-linejoin="round"/>
<path d="M11.0571 5.0618L6.39041 9.1243C5.54311 9.8619 5.11946 10.2307 4.89298 10.7405C4.6665 11.2503 4.6665 11.8352 4.6665 13.0049V17.5C4.6665 22.214 4.6665 24.5711 6.03334 26.0355C7.40018 27.5 9.60006 27.5 13.9998 27.5C18.3996 27.5 20.5996 27.5 21.9663 26.0355C23.3332 24.5711 23.3332 22.214 23.3332 17.5V13.0049C23.3332 11.8352 23.3332 11.2503 23.1067 10.7405C22.8802 10.2307 22.4565 9.8619 21.6093 9.1243L16.9426 5.0618C15.5331 3.83473 14.8283 3.22119 13.9998 3.22119C13.1714 3.22119 12.4666 3.83473 11.0571 5.0618Z" fill="#31316B" stroke="#2863C3" stroke-width="1.5"/>
<path d="M11.375 20.3125H16.625" stroke="#2863C3" stroke-width="1.5" stroke-linecap="round"/>
</svg>
