<svg width="28" height="30" viewBox="0 0 28 30" fill="none" xmlns="http://www.w3.org/2000/svg">
<path d="M24.7918 14.5582C24.7918 8.36047 19.9602 3.33618 14.0002 3.33618C8.04009 3.33618 3.2085 8.36047 3.2085 14.5582C3.2085 20.756 8.04009 25.7803 14.0002 25.7803C19.9602 25.7803 24.7918 20.756 24.7918 14.5582Z" fill="#31316B" stroke="#2863C3" stroke-width="1.5"/>
<path d="M12.5659 12.2881L15.7456 11.2144C16.652 10.9083 17.51 11.8003 17.2155 12.743L16.183 16.0494C16.0676 16.4189 15.789 16.7087 15.4337 16.8286L12.254 17.9024C11.3475 18.2085 10.4897 17.3165 10.784 16.3738L11.8167 13.0672C11.932 12.6978 12.2106 12.4081 12.5659 12.2881Z" stroke="#2863C3" stroke-width="1.5"/>
</svg>
