<svg width="28" height="28" viewBox="0 0 28 28" fill="none" xmlns="http://www.w3.org/2000/svg">
<path d="M14.7363 2.33301C15.3896 2.33301 15.7167 2.33258 15.9609 2.48633C16.0592 2.54817 16.1455 2.62717 16.2168 2.71875C16.3941 2.94648 16.4263 3.2718 16.4912 3.92188C16.6145 5.15609 16.677 5.77361 17.0254 6.03711C17.1614 6.13983 17.3214 6.20598 17.4902 6.22949C17.9229 6.28966 18.4038 5.8969 19.3643 5.11133C19.87 4.69771 20.1228 4.49064 20.4092 4.45508C20.5242 4.44081 20.6409 4.44699 20.7539 4.47266C21.0353 4.53664 21.2666 4.76753 21.7285 5.22949L22.7705 6.27148C23.2324 6.73333 23.4634 6.96477 23.5273 7.24609C23.553 7.35931 23.5593 7.4766 23.5449 7.5918C23.509 7.87791 23.3012 8.13059 22.8877 8.63574C22.1023 9.59516 21.7097 10.0753 21.7695 10.5078C21.793 10.6771 21.8598 10.8373 21.9629 10.9736C22.2263 11.3219 22.8435 11.3841 24.0781 11.5078C24.7287 11.573 25.0545 11.6057 25.2822 11.7832C25.3734 11.8543 25.4511 11.9412 25.5127 12.0391C25.6666 12.2834 25.667 12.6101 25.667 13.2637V14.7363C25.667 15.3897 25.6674 15.7167 25.5137 15.9609C25.4518 16.0591 25.3728 16.1455 25.2812 16.2168C25.0535 16.3941 24.7283 16.4263 24.0781 16.4912C22.8435 16.6145 22.2264 16.6769 21.9629 17.0254C21.86 17.1615 21.7931 17.3213 21.7695 17.4902C21.7093 17.923 22.1028 18.4038 22.8887 19.3643C23.3023 19.8698 23.5093 20.1228 23.5449 20.4092C23.5592 20.5242 23.553 20.6409 23.5273 20.7539C23.4634 21.0354 23.2325 21.2665 22.7705 21.7285L21.7285 22.7705C21.2665 23.2325 21.0354 23.4634 20.7539 23.5273C20.6409 23.553 20.5242 23.5592 20.4092 23.5449C20.1228 23.5093 19.8698 23.3023 19.3643 22.8887C18.4038 22.1028 17.923 21.7093 17.4902 21.7695C17.3213 21.7931 17.1615 21.86 17.0254 21.9629C16.6769 22.2264 16.6145 22.8435 16.4912 24.0781C16.4263 24.7283 16.3941 25.0535 16.2168 25.2812C16.1455 25.3728 16.0591 25.4518 15.9609 25.5137C15.7167 25.6674 15.3897 25.667 14.7363 25.667H13.2637C12.6101 25.667 12.2834 25.6666 12.0391 25.5127C11.9412 25.4511 11.8543 25.3734 11.7832 25.2822C11.6057 25.0545 11.573 24.7287 11.5078 24.0781C11.3841 22.8435 11.3219 22.2263 10.9736 21.9629C10.8373 21.8598 10.6771 21.793 10.5078 21.7695C10.0753 21.7097 9.59516 22.1023 8.63574 22.8877C8.13059 23.3012 7.87791 23.509 7.5918 23.5449C7.4766 23.5593 7.35931 23.553 7.24609 23.5273C6.96477 23.4634 6.73333 23.2324 6.27148 22.7705L5.22949 21.7285C4.76753 21.2666 4.53664 21.0353 4.47266 20.7539C4.44699 20.6409 4.44081 20.5242 4.45508 20.4092C4.49064 20.1228 4.69771 19.87 5.11133 19.3643C5.8969 18.4038 6.28966 17.9229 6.22949 17.4902C6.20598 17.3214 6.13983 17.1614 6.03711 17.0254C5.77361 16.677 5.15609 16.6145 3.92188 16.4912C3.2718 16.4263 2.94648 16.3941 2.71875 16.2168C2.62717 16.1455 2.54817 16.0592 2.48633 15.9609C2.33258 15.7167 2.33301 15.3896 2.33301 14.7363V13.2637C2.33301 12.6101 2.33341 12.2834 2.4873 12.0391C2.54906 11.9411 2.62737 11.8544 2.71875 11.7832C2.9465 11.6059 3.27171 11.5729 3.92188 11.5078C5.15652 11.3843 5.77367 11.3224 6.03711 10.9736C6.13966 10.8378 6.20591 10.6783 6.22949 10.5098C6.28986 10.0769 5.89702 9.59634 5.11133 8.63574C4.6975 8.12979 4.49065 7.87637 4.45508 7.58984C4.44084 7.47495 4.44704 7.35802 4.47266 7.24512C4.53667 6.96367 4.7675 6.7325 5.22949 6.27051L6.27148 5.22852C6.73345 4.76655 6.96467 4.53564 7.24609 4.47168C7.35915 4.446 7.47577 4.43982 7.59082 4.4541C7.87717 4.48972 8.13019 4.69674 8.63574 5.11035C9.59582 5.89583 10.0761 6.28858 10.5088 6.22852C10.6779 6.20503 10.8384 6.1391 10.9746 6.03613C11.323 5.77269 11.3843 5.15503 11.5078 3.9209C11.5728 3.27117 11.606 2.94638 11.7832 2.71875C11.8545 2.62718 11.9408 2.54816 12.0391 2.48633C12.2832 2.3327 12.6099 2.33301 13.2627 2.33301H14.7363ZM14 9.33301C11.4227 9.33301 9.33301 11.4227 9.33301 14C9.33301 16.5773 11.4227 18.667 14 18.667C16.5773 18.667 18.667 16.5773 18.667 14C18.667 11.4227 16.5773 9.33301 14 9.33301Z" fill="#31316B"/>
<path d="M15.9609 2.48633L16.2273 2.06321L16.2273 2.0632L15.9609 2.48633ZM16.2168 2.71875L16.6114 2.41162L16.6113 2.41157L16.2168 2.71875ZM16.4912 3.92188L15.9937 3.97156L16.4912 3.92188ZM17.0254 6.03711L16.7238 6.4359L16.724 6.43608L17.0254 6.03711ZM17.4902 6.22949L17.4213 6.72471L17.4214 6.72473L17.4902 6.22949ZM19.3643 5.11133L19.0477 4.7243L19.3643 5.11133ZM20.4092 4.45508L20.3476 3.95888L20.3476 3.95889L20.4092 4.45508ZM20.7539 4.47266L20.8648 3.9851L20.8647 3.98508L20.7539 4.47266ZM23.5273 7.24609L24.0149 7.13543L24.0149 7.1352L23.5273 7.24609ZM23.5449 7.5918L24.041 7.65404L24.0411 7.65375L23.5449 7.5918ZM22.8877 8.63574L22.5008 8.31903L22.8877 8.63574ZM21.7695 10.5078L21.2743 10.5763L21.2743 10.5764L21.7695 10.5078ZM21.9629 10.9736L21.5641 11.2752L21.5641 11.2752L21.9629 10.9736ZM24.0781 11.5078L24.128 11.0103L24.0781 11.5078ZM25.2822 11.7832L25.5898 11.389L25.5896 11.3889L25.2822 11.7832ZM25.5127 12.0391L25.9358 11.7726L25.9357 11.7725L25.5127 12.0391ZM25.5137 15.9609L25.9368 16.2274L25.9368 16.2273L25.5137 15.9609ZM25.2812 16.2168L25.5884 16.6113L25.5884 16.6113L25.2812 16.2168ZM24.0781 16.4912L24.0285 15.9937L24.0781 16.4912ZM21.9629 17.0254L21.5641 16.7238L21.564 16.7239L21.9629 17.0254ZM21.7695 17.4902L21.2743 17.4213L21.2743 17.4214L21.7695 17.4902ZM22.8887 19.3643L23.2757 19.0476L22.8887 19.3643ZM23.5449 20.4092L24.0411 20.3476L24.0411 20.3475L23.5449 20.4092ZM23.5273 20.7539L24.0149 20.8647V20.8647L23.5273 20.7539ZM20.7539 23.5273L20.8647 24.0149H20.8647L20.7539 23.5273ZM20.4092 23.5449L20.3475 24.0411L20.3476 24.0411L20.4092 23.5449ZM19.3643 22.8887L19.0476 23.2757L19.3643 22.8887ZM17.4902 21.7695L17.4214 21.2743L17.4213 21.2743L17.4902 21.7695ZM17.0254 21.9629L16.7239 21.564L16.7238 21.5641L17.0254 21.9629ZM16.4912 24.0781L15.9937 24.0285L16.4912 24.0781ZM16.2168 25.2812L16.6113 25.5884L16.6113 25.5884L16.2168 25.2812ZM15.9609 25.5137L16.2273 25.9368L16.2274 25.9368L15.9609 25.5137ZM12.0391 25.5127L11.7725 25.9357L11.7726 25.9358L12.0391 25.5127ZM11.7832 25.2822L11.3889 25.5896L11.389 25.5898L11.7832 25.2822ZM11.5078 24.0781L11.0103 24.128L11.5078 24.0781ZM10.9736 21.9629L11.2752 21.5641L11.2752 21.5641L10.9736 21.9629ZM10.5078 21.7695L10.5764 21.2743L10.5763 21.2743L10.5078 21.7695ZM8.63574 22.8877L8.31903 22.5008L8.63574 22.8877ZM7.5918 23.5449L7.65375 24.0411L7.65404 24.041L7.5918 23.5449ZM7.24609 23.5273L7.1352 24.0149L7.13543 24.0149L7.24609 23.5273ZM6.27148 22.7705L6.62504 22.417L6.27148 22.7705ZM5.22949 21.7285L4.87594 22.0821L5.22949 21.7285ZM4.47266 20.7539L3.98508 20.8647L3.9851 20.8648L4.47266 20.7539ZM4.45508 20.4092L3.95889 20.3476L3.95888 20.3476L4.45508 20.4092ZM5.11133 19.3643L4.7243 19.0477L5.11133 19.3643ZM6.22949 17.4902L6.72473 17.4214L6.72471 17.4213L6.22949 17.4902ZM6.03711 17.0254L6.43608 16.724L6.4359 16.7238L6.03711 17.0254ZM3.92188 16.4912L3.97156 15.9937L3.92188 16.4912ZM2.71875 16.2168L2.41157 16.6113L2.41162 16.6114L2.71875 16.2168ZM2.48633 15.9609L2.0632 16.2273L2.06321 16.2273L2.48633 15.9609ZM2.4873 12.0391L2.06427 11.7725L2.06425 11.7726L2.4873 12.0391ZM2.71875 11.7832L2.41156 11.3887L2.41145 11.3888L2.71875 11.7832ZM3.92188 11.5078L3.97166 12.0053L3.92188 11.5078ZM6.03711 10.9736L6.43608 11.275L6.43611 11.275L6.03711 10.9736ZM6.22949 10.5098L6.72467 10.5791L6.7247 10.5788L6.22949 10.5098ZM5.11133 8.63574L5.49836 8.31918L5.11133 8.63574ZM4.45508 7.58984L3.95888 7.65135L3.95889 7.65144L4.45508 7.58984ZM4.47266 7.24512L3.98511 7.13423L3.98505 7.13447L4.47266 7.24512ZM5.22949 6.27051L4.87594 5.91695L5.22949 6.27051ZM7.24609 4.47168L7.13532 3.9841L7.13529 3.98411L7.24609 4.47168ZM7.59082 4.4541L7.65254 3.95793L7.65243 3.95791L7.59082 4.4541ZM8.63574 5.11035L8.95235 4.72336L8.63574 5.11035ZM10.5088 6.22852L10.5775 6.72377L10.5776 6.72376L10.5088 6.22852ZM10.9746 6.03613L11.2762 6.43496L11.2762 6.43496L10.9746 6.03613ZM11.5078 3.9209L11.0103 3.87111L11.5078 3.9209ZM11.7832 2.71875L11.3887 2.41152L11.3887 2.41159L11.7832 2.71875ZM12.0391 2.48633L11.7728 2.06315L11.7727 2.06318L12.0391 2.48633ZM13.2627 2.33301V1.83301V2.33301ZM14.7363 2.33301V2.83301C15.0732 2.83301 15.2893 2.83347 15.453 2.8496C15.6079 2.86487 15.6643 2.89043 15.6946 2.90946L15.9609 2.48633L16.2273 2.0632C16.0133 1.92848 15.7841 1.87738 15.5511 1.85442C15.3269 1.83233 15.0528 1.83301 14.7363 1.83301V2.33301ZM15.9609 2.48633L15.6945 2.90945C15.7421 2.93937 15.7855 2.97864 15.8223 3.02593L16.2168 2.71875L16.6113 2.41157C16.5055 2.27571 16.3763 2.15697 16.2273 2.06321L15.9609 2.48633ZM16.2168 2.71875L15.8222 3.02588C15.8443 3.05415 15.8753 3.10778 15.9059 3.26029C15.9382 3.42149 15.9602 3.63643 15.9937 3.97156L16.4912 3.92188L16.9887 3.87219C16.9573 3.55725 16.9307 3.28449 16.8864 3.06358C16.8403 2.83398 16.7666 2.61107 16.6114 2.41162L16.2168 2.71875ZM16.4912 3.92188L15.9937 3.97156C16.0541 4.57615 16.1031 5.07354 16.1854 5.45017C16.2667 5.82269 16.4023 6.19278 16.7238 6.4359L17.0254 6.03711L17.327 5.63832C17.3 5.61793 17.2302 5.54752 17.1624 5.23685C17.0954 4.93029 17.0516 4.50182 16.9887 3.87219L16.4912 3.92188ZM17.0254 6.03711L16.724 6.43608C16.9282 6.59032 17.1683 6.68948 17.4213 6.72471L17.4902 6.22949L17.5592 5.73427C17.4746 5.72248 17.3945 5.68934 17.3268 5.63814L17.0254 6.03711ZM17.4902 6.22949L17.4214 6.72473C17.8207 6.78026 18.1784 6.61429 18.4993 6.40839C18.8238 6.2002 19.2104 5.88312 19.6808 5.49836L19.3643 5.11133L19.0477 4.7243C18.5577 5.12511 18.2236 5.3972 17.9593 5.56674C17.6915 5.73857 17.5924 5.73889 17.5591 5.73426L17.4902 6.22949ZM19.3643 5.11133L19.6808 5.49836C19.9415 5.28513 20.109 5.14877 20.2459 5.05773C20.3753 4.97161 20.4352 4.95569 20.4708 4.95127L20.4092 4.45508L20.3476 3.95889C20.0968 3.99003 19.887 4.09542 19.692 4.22513C19.5044 4.34992 19.2927 4.5239 19.0477 4.7243L19.3643 5.11133ZM20.4092 4.45508L20.4707 4.95127C20.5273 4.94426 20.5857 4.94718 20.6432 4.96024L20.7539 4.47266L20.8647 3.98508C20.6961 3.9468 20.5211 3.93735 20.3476 3.95888L20.4092 4.45508ZM20.7539 4.47266L20.6431 4.96021C20.6783 4.96823 20.7365 4.99016 20.8567 5.08863C20.9837 5.19272 21.1369 5.34503 21.375 5.58305L21.7285 5.22949L22.0821 4.87594C21.8581 4.65199 21.6647 4.45788 21.4903 4.31503C21.3091 4.16657 21.1109 4.04107 20.8648 3.9851L20.7539 4.47266ZM21.7285 5.22949L21.375 5.58305L22.417 6.62504L22.7705 6.27148L23.1241 5.91793L22.0821 4.87594L21.7285 5.22949ZM22.7705 6.27148L22.417 6.62504C22.6549 6.86296 22.8072 7.01621 22.9113 7.14331C23.0098 7.2636 23.0318 7.3218 23.0398 7.35698L23.5273 7.24609L24.0149 7.1352C23.9589 6.88906 23.8334 6.69088 23.6849 6.50966C23.5421 6.33525 23.348 6.14185 23.1241 5.91793L22.7705 6.27148ZM23.5273 7.24609L23.0397 7.35676C23.0529 7.41468 23.0558 7.47356 23.0488 7.52985L23.5449 7.5918L24.0411 7.65375C24.0628 7.47963 24.0532 7.30393 24.0149 7.13543L23.5273 7.24609ZM23.5449 7.5918L23.0488 7.52955C23.0444 7.5648 23.0284 7.62455 22.942 7.75414C22.8506 7.89105 22.7141 8.05847 22.5008 8.31903L22.8877 8.63574L23.2746 8.95246C23.4748 8.70786 23.6489 8.49636 23.7738 8.30912C23.9037 8.11455 24.0096 7.9049 24.041 7.65404L23.5449 7.5918ZM22.8877 8.63574L22.5008 8.31903C22.1161 8.78891 21.7991 9.17502 21.591 9.49915C21.385 9.81974 21.219 10.1771 21.2743 10.5763L21.7695 10.5078L22.2648 10.4393C22.2602 10.406 22.2606 10.307 22.4323 10.0396C22.6019 9.77565 22.8739 9.44199 23.2746 8.95246L22.8877 8.63574ZM21.7695 10.5078L21.2743 10.5764C21.3095 10.8312 21.4101 11.0715 21.5641 11.2752L21.9629 10.9736L22.3617 10.6721C22.3096 10.6032 22.2764 10.5229 22.2648 10.4392L21.7695 10.5078ZM21.9629 10.9736L21.5641 11.2752C21.8072 11.5967 22.1773 11.7322 22.5497 11.8134C22.9262 11.8956 23.4236 11.9447 24.0283 12.0053L24.0781 11.5078L24.128 11.0103C23.4981 10.9472 23.0695 10.9033 22.7629 10.8364C22.4522 10.7686 22.382 10.6988 22.3617 10.672L21.9629 10.9736ZM24.0781 11.5078L24.0283 12.0053C24.3635 12.0389 24.5787 12.0611 24.7401 12.0936C24.8927 12.1243 24.9465 12.1555 24.9748 12.1776L25.2822 11.7832L25.5896 11.3889C25.3902 11.2334 25.1672 11.1595 24.9375 11.1132C24.7163 11.0687 24.4433 11.0419 24.128 11.0103L24.0781 11.5078ZM25.2822 11.7832L24.9747 12.1774C25.0187 12.2118 25.0578 12.255 25.0897 12.3056L25.5127 12.0391L25.9357 11.7725C25.8444 11.6275 25.7281 11.4969 25.5898 11.389L25.2822 11.7832ZM25.5127 12.0391L25.0896 12.3055C25.1089 12.3362 25.1346 12.3929 25.15 12.5475C25.1663 12.711 25.167 12.927 25.167 13.2637H25.667H26.167C26.167 12.9468 26.1675 12.6727 26.1451 12.4483C26.1218 12.215 26.0703 11.9862 25.9358 11.7726L25.5127 12.0391ZM25.667 13.2637H25.167V14.7363H25.667H26.167V13.2637H25.667ZM25.667 14.7363H25.167C25.167 15.0732 25.1665 15.2893 25.1504 15.453C25.1351 15.6079 25.1096 15.6643 25.0905 15.6946L25.5137 15.9609L25.9368 16.2273C26.0715 16.0133 26.1226 15.7841 26.1456 15.5511C26.1677 15.3269 26.167 15.0528 26.167 14.7363H25.667ZM25.5137 15.9609L25.0906 15.6945C25.0606 15.7421 25.0213 15.7855 24.9741 15.8223L25.2812 16.2168L25.5884 16.6113C25.7243 16.5055 25.843 16.3762 25.9368 16.2274L25.5137 15.9609ZM25.2812 16.2168L24.9741 15.8223C24.9458 15.8443 24.8922 15.8753 24.7397 15.9059C24.5786 15.9383 24.3636 15.9602 24.0285 15.9937L24.0781 16.4912L24.1278 16.9887C24.4428 16.9573 24.7155 16.9307 24.9364 16.8864C25.1661 16.8403 25.3889 16.7666 25.5884 16.6113L25.2812 16.2168ZM24.0781 16.4912L24.0285 15.9937C23.4237 16.0541 22.9263 16.1031 22.5497 16.1853C22.1771 16.2667 21.8072 16.4023 21.5641 16.7238L21.9629 17.0254L22.3617 17.3269C22.3821 17.2999 22.4525 17.2301 22.763 17.1623C23.0695 17.0954 23.4979 17.0516 24.1278 16.9887L24.0781 16.4912ZM21.9629 17.0254L21.564 16.7239C21.4106 16.9268 21.3098 17.1665 21.2743 17.4213L21.7695 17.4902L22.2648 17.5592C22.2763 17.4761 22.3095 17.3961 22.3618 17.3269L21.9629 17.0254ZM21.7695 17.4902L21.2743 17.4214C21.2187 17.821 21.3851 18.1788 21.5912 18.4996C21.7995 18.824 22.1169 19.2105 22.5017 19.6809L22.8887 19.3643L23.2757 19.0476C22.8746 18.5575 22.6023 18.2234 22.4325 17.9591C22.2604 17.6912 22.2602 17.5923 22.2648 17.5591L21.7695 17.4902ZM22.8887 19.3643L22.5017 19.6809C22.7149 19.9414 22.8512 20.109 22.9422 20.2458C23.0283 20.3753 23.0443 20.4352 23.0487 20.4709L23.5449 20.4092L24.0411 20.3475C24.0099 20.0968 23.9046 19.887 23.7749 19.692C23.6501 19.5044 23.4761 19.2926 23.2757 19.0476L22.8887 19.3643ZM23.5449 20.4092L23.0487 20.4708C23.0557 20.5273 23.0528 20.5856 23.0398 20.6431L23.5273 20.7539L24.0149 20.8647C24.0532 20.6961 24.0627 20.5212 24.0411 20.3476L23.5449 20.4092ZM23.5273 20.7539L23.0398 20.6431C23.0318 20.6784 23.0099 20.7365 22.9114 20.8567C22.8073 20.9837 22.655 21.1369 22.417 21.375L22.7705 21.7285L23.1241 22.0821C23.348 21.8581 23.5422 21.6647 23.685 21.4904C23.8335 21.3091 23.959 21.1109 24.0149 20.8647L23.5273 20.7539ZM22.7705 21.7285L22.417 21.375L21.375 22.417L21.7285 22.7705L22.0821 23.1241L23.1241 22.0821L22.7705 21.7285ZM21.7285 22.7705L21.375 22.417C21.1369 22.655 20.9837 22.8073 20.8567 22.9114C20.7365 23.0099 20.6784 23.0318 20.6431 23.0398L20.7539 23.5273L20.8647 24.0149C21.1109 23.959 21.3091 23.8335 21.4904 23.685C21.6647 23.5422 21.8581 23.348 22.0821 23.1241L21.7285 22.7705ZM20.7539 23.5273L20.6431 23.0398C20.5856 23.0528 20.5273 23.0557 20.4708 23.0487L20.4092 23.5449L20.3476 24.0411C20.5212 24.0627 20.6961 24.0532 20.8647 24.0149L20.7539 23.5273ZM20.4092 23.5449L20.4709 23.0487C20.4352 23.0443 20.3753 23.0283 20.2458 22.9422C20.109 22.8512 19.9414 22.7149 19.6809 22.5017L19.3643 22.8887L19.0476 23.2757C19.2926 23.4761 19.5044 23.6501 19.692 23.7749C19.887 23.9046 20.0968 24.0099 20.3475 24.0411L20.4092 23.5449ZM19.3643 22.8887L19.6809 22.5017C19.2105 22.1169 18.824 21.7995 18.4996 21.5912C18.1788 21.3851 17.821 21.2187 17.4214 21.2743L17.4902 21.7695L17.5591 22.2648C17.5923 22.2602 17.6912 22.2604 17.9591 22.4325C18.2234 22.6023 18.5575 22.8746 19.0476 23.2757L19.3643 22.8887ZM17.4902 21.7695L17.4213 21.2743C17.1665 21.3098 16.9268 21.4106 16.7239 21.564L17.0254 21.9629L17.3269 22.3618C17.3961 22.3095 17.4761 22.2763 17.5592 22.2648L17.4902 21.7695ZM17.0254 21.9629L16.7238 21.5641C16.4023 21.8072 16.2667 22.1771 16.1853 22.5497C16.1031 22.9263 16.0541 23.4237 15.9937 24.0285L16.4912 24.0781L16.9887 24.1278C17.0516 23.4979 17.0954 23.0695 17.1623 22.763C17.2301 22.4525 17.2999 22.3821 17.3269 22.3617L17.0254 21.9629ZM16.4912 24.0781L15.9937 24.0285C15.9602 24.3636 15.9383 24.5786 15.9059 24.7397C15.8753 24.8922 15.8443 24.9458 15.8223 24.9741L16.2168 25.2812L16.6113 25.5884C16.7666 25.3889 16.8403 25.1661 16.8864 24.9364C16.9307 24.7155 16.9573 24.4428 16.9887 24.1278L16.4912 24.0781ZM16.2168 25.2812L15.8223 24.9741C15.7855 25.0213 15.7421 25.0606 15.6945 25.0906L15.9609 25.5137L16.2274 25.9368C16.3762 25.843 16.5055 25.7243 16.6113 25.5884L16.2168 25.2812ZM15.9609 25.5137L15.6946 25.0905C15.6643 25.1096 15.6079 25.1351 15.453 25.1504C15.2893 25.1665 15.0732 25.167 14.7363 25.167V25.667V26.167C15.0528 26.167 15.3269 26.1677 15.5511 26.1456C15.7841 26.1226 16.0133 26.0715 16.2273 25.9368L15.9609 25.5137ZM14.7363 25.667V25.167H13.2637V25.667V26.167H14.7363V25.667ZM13.2637 25.667V25.167C12.927 25.167 12.711 25.1663 12.5475 25.15C12.3929 25.1346 12.3362 25.1089 12.3055 25.0896L12.0391 25.5127L11.7726 25.9358C11.9862 26.0703 12.215 26.1218 12.4483 26.1451C12.6727 26.1675 12.9468 26.167 13.2637 26.167V25.667ZM12.0391 25.5127L12.3056 25.0897C12.255 25.0578 12.2118 25.0187 12.1774 24.9747L11.7832 25.2822L11.389 25.5898C11.4969 25.7281 11.6275 25.8444 11.7725 25.9357L12.0391 25.5127ZM11.7832 25.2822L12.1776 24.9748C12.1555 24.9465 12.1243 24.8927 12.0936 24.7401C12.0611 24.5787 12.0389 24.3635 12.0053 24.0283L11.5078 24.0781L11.0103 24.128C11.0419 24.4433 11.0687 24.7163 11.1132 24.9375C11.1595 25.1672 11.2334 25.3902 11.3889 25.5896L11.7832 25.2822ZM11.5078 24.0781L12.0053 24.0283C11.9447 23.4236 11.8956 22.9262 11.8134 22.5497C11.7322 22.1773 11.5967 21.8072 11.2752 21.5641L10.9736 21.9629L10.672 22.3617C10.6988 22.382 10.7686 22.4522 10.8364 22.7629C10.9033 23.0695 10.9472 23.4981 11.0103 24.128L11.5078 24.0781ZM10.9736 21.9629L11.2752 21.5641C11.0715 21.4101 10.8312 21.3095 10.5764 21.2743L10.5078 21.7695L10.4392 22.2648C10.5229 22.2764 10.6032 22.3096 10.6721 22.3617L10.9736 21.9629ZM10.5078 21.7695L10.5763 21.2743C10.1771 21.219 9.81974 21.385 9.49915 21.591C9.17502 21.7991 8.78891 22.1161 8.31903 22.5008L8.63574 22.8877L8.95246 23.2746C9.44199 22.8739 9.77565 22.6019 10.0396 22.4323C10.307 22.2606 10.406 22.2602 10.4393 22.2648L10.5078 21.7695ZM8.63574 22.8877L8.31903 22.5008C8.05847 22.7141 7.89105 22.8506 7.75414 22.942C7.62455 23.0284 7.5648 23.0444 7.52955 23.0488L7.5918 23.5449L7.65404 24.041C7.9049 24.0096 8.11455 23.9037 8.30912 23.7738C8.49636 23.6489 8.70786 23.4748 8.95246 23.2746L8.63574 22.8877ZM7.5918 23.5449L7.52985 23.0488C7.47356 23.0558 7.41468 23.0529 7.35676 23.0397L7.24609 23.5273L7.13543 24.0149C7.30393 24.0532 7.47963 24.0628 7.65375 24.0411L7.5918 23.5449ZM7.24609 23.5273L7.35698 23.0398C7.3218 23.0318 7.2636 23.0098 7.14331 22.9113C7.01621 22.8072 6.86296 22.6549 6.62504 22.417L6.27148 22.7705L5.91793 23.1241C6.14185 23.348 6.33525 23.5421 6.50966 23.6849C6.69088 23.8334 6.88906 23.9589 7.1352 24.0149L7.24609 23.5273ZM6.27148 22.7705L6.62504 22.417L5.58305 21.375L5.22949 21.7285L4.87594 22.0821L5.91793 23.1241L6.27148 22.7705ZM5.22949 21.7285L5.58305 21.375C5.34503 21.1369 5.19272 20.9837 5.08863 20.8567C4.99016 20.7365 4.96823 20.6783 4.96021 20.6431L4.47266 20.7539L3.9851 20.8648C4.04107 21.1109 4.16657 21.3091 4.31503 21.4903C4.45788 21.6647 4.65199 21.8581 4.87594 22.0821L5.22949 21.7285ZM4.47266 20.7539L4.96024 20.6432C4.94718 20.5857 4.94426 20.5273 4.95127 20.4707L4.45508 20.4092L3.95888 20.3476C3.93735 20.5211 3.9468 20.6961 3.98508 20.8647L4.47266 20.7539ZM4.45508 20.4092L4.95127 20.4708C4.95569 20.4352 4.97161 20.3753 5.05773 20.2459C5.14877 20.109 5.28513 19.9415 5.49836 19.6808L5.11133 19.3643L4.7243 19.0477C4.5239 19.2927 4.34992 19.5044 4.22513 19.692C4.09542 19.887 3.99003 20.0968 3.95889 20.3476L4.45508 20.4092ZM5.11133 19.3643L5.49836 19.6808C5.88312 19.2104 6.2002 18.8238 6.40839 18.4993C6.61429 18.1784 6.78026 17.8207 6.72473 17.4214L6.22949 17.4902L5.73426 17.5591C5.73889 17.5924 5.73857 17.6915 5.56674 17.9593C5.3972 18.2236 5.12511 18.5577 4.7243 19.0477L5.11133 19.3643ZM6.22949 17.4902L6.72471 17.4213C6.68948 17.1683 6.59032 16.9282 6.43608 16.724L6.03711 17.0254L5.63814 17.3268C5.68934 17.3945 5.72248 17.4746 5.73427 17.5592L6.22949 17.4902ZM6.03711 17.0254L6.4359 16.7238C6.19278 16.4023 5.82269 16.2667 5.45017 16.1854C5.07354 16.1031 4.57615 16.0541 3.97156 15.9937L3.92188 16.4912L3.87219 16.9887C4.50182 17.0516 4.93029 17.0954 5.23685 17.1624C5.54752 17.2302 5.61793 17.3 5.63832 17.327L6.03711 17.0254ZM3.92188 16.4912L3.97156 15.9937C3.63643 15.9602 3.42149 15.9382 3.26029 15.9059C3.10778 15.8753 3.05415 15.8443 3.02588 15.8222L2.71875 16.2168L2.41162 16.6114C2.61107 16.7666 2.83398 16.8403 3.06358 16.8864C3.28449 16.9307 3.55725 16.9573 3.87219 16.9887L3.92188 16.4912ZM2.71875 16.2168L3.02593 15.8223C2.97864 15.7855 2.93937 15.7421 2.90945 15.6945L2.48633 15.9609L2.06321 16.2273C2.15697 16.3763 2.27571 16.5055 2.41157 16.6113L2.71875 16.2168ZM2.48633 15.9609L2.90946 15.6946C2.89043 15.6643 2.86487 15.6079 2.8496 15.453C2.83347 15.2893 2.83301 15.0732 2.83301 14.7363H2.33301H1.83301C1.83301 15.0528 1.83233 15.3269 1.85442 15.5511C1.87738 15.7841 1.92848 16.0133 2.0632 16.2273L2.48633 15.9609ZM2.33301 14.7363H2.83301V13.2637H2.33301H1.83301V14.7363H2.33301ZM2.33301 13.2637H2.83301C2.83301 12.927 2.83368 12.7109 2.84998 12.5475C2.86539 12.3929 2.89104 12.3362 2.91036 12.3056L2.4873 12.0391L2.06425 11.7726C1.92967 11.9862 1.87817 12.215 1.85491 12.4483C1.83254 12.6727 1.83301 12.9468 1.83301 13.2637H2.33301ZM2.4873 12.0391L2.91033 12.3056C2.94134 12.2564 2.98055 12.2131 3.02605 12.1776L2.71875 11.7832L2.41145 11.3888C2.27418 11.4957 2.15678 11.6257 2.06427 11.7725L2.4873 12.0391ZM2.71875 11.7832L3.02594 12.1777C3.05454 12.1554 3.10846 12.1243 3.2608 12.0935C3.42181 12.061 3.63677 12.0388 3.97166 12.0053L3.92188 11.5078L3.87209 11.0103C3.55682 11.0418 3.28408 11.0687 3.06301 11.1133C2.83327 11.1596 2.61071 11.2336 2.41156 11.3887L2.71875 11.7832ZM3.92188 11.5078L3.97166 12.0053C4.57629 11.9448 5.07375 11.8958 5.45026 11.8137C5.82276 11.7324 6.19295 11.5969 6.43608 11.275L6.03711 10.9736L5.63814 10.6723C5.61783 10.6991 5.54773 10.7689 5.23713 10.8367C4.93055 10.9035 4.5021 10.9473 3.87209 11.0103L3.92188 11.5078ZM6.03711 10.9736L6.43611 11.275C6.58981 11.0714 6.68926 10.8321 6.72467 10.5791L6.22949 10.5098L5.73432 10.4405C5.72255 10.5245 5.68951 10.6042 5.63811 10.6723L6.03711 10.9736ZM6.22949 10.5098L6.7247 10.5788C6.78042 10.1793 6.61443 9.82152 6.40849 9.5006C6.20029 9.17617 5.88314 8.78962 5.49836 8.31918L5.11133 8.63574L4.7243 8.9523C5.12521 9.44246 5.39733 9.77648 5.56688 10.0407C5.73869 10.3084 5.73893 10.4074 5.73428 10.4407L6.22949 10.5098ZM5.11133 8.63574L5.49836 8.31918C5.28517 8.05854 5.14879 7.89077 5.05784 7.75385C4.97177 7.62428 4.95572 7.56413 4.95127 7.52825L4.45508 7.58984L3.95889 7.65144C3.99 7.90208 4.09516 8.1119 4.22487 8.30717C4.34969 8.49508 4.52366 8.70699 4.7243 8.9523L5.11133 8.63574ZM4.45508 7.58984L4.95128 7.52834C4.94429 7.47193 4.94722 7.41324 4.96026 7.35576L4.47266 7.24512L3.98505 7.13447C3.94685 7.3028 3.93739 7.47797 3.95888 7.65135L4.45508 7.58984ZM4.47266 7.24512L4.9602 7.35601C4.96823 7.32072 4.99018 7.26254 5.08863 7.14235C5.19271 7.01529 5.34501 6.86209 5.58305 6.62406L5.22949 6.27051L4.87594 5.91695C4.65197 6.14092 4.45787 6.3343 4.31503 6.50868C4.16656 6.68993 4.0411 6.88806 3.98511 7.13423L4.47266 7.24512ZM5.22949 6.27051L5.58305 6.62406L6.62504 5.58207L6.27148 5.22852L5.91793 4.87496L4.87594 5.91695L5.22949 6.27051ZM6.27148 5.22852L6.62504 5.58207C6.86306 5.34405 7.01626 5.19173 7.14333 5.08764C7.26355 4.98917 7.3217 4.96725 7.3569 4.95925L7.24609 4.47168L7.13529 3.98411C6.88906 4.04007 6.69089 4.16559 6.50965 4.31405C6.33526 4.4569 6.14187 4.65102 5.91793 4.87496L6.27148 5.22852ZM7.24609 4.47168L7.35687 4.95925C7.41439 4.94619 7.4727 4.94328 7.52922 4.95029L7.59082 4.4541L7.65243 3.95791C7.47884 3.93636 7.3039 3.94581 7.13532 3.9841L7.24609 4.47168ZM7.59082 4.4541L7.5291 4.95028C7.56475 4.95471 7.62471 4.9707 7.75418 5.0568C7.89102 5.14782 8.05858 5.28417 8.31913 5.49734L8.63574 5.11035L8.95235 4.72336C8.70735 4.52292 8.49563 4.34896 8.30798 4.22416C8.11297 4.09445 7.90324 3.98911 7.65254 3.95793L7.59082 4.4541ZM8.63574 5.11035L8.31913 5.49734C8.78932 5.88202 9.17566 6.19908 9.49992 6.40726C9.82064 6.61317 10.1782 6.77921 10.5775 6.72377L10.5088 6.22852L10.44 5.73327C10.4067 5.73789 10.3078 5.73758 10.0402 5.56576C9.7761 5.39622 9.44224 5.12416 8.95235 4.72336L8.63574 5.11035ZM10.5088 6.22852L10.5776 6.72376C10.8302 6.68868 11.0711 6.59005 11.2762 6.43496L10.9746 6.03613L10.6731 5.6373C10.6058 5.68815 10.5256 5.72138 10.44 5.73327L10.5088 6.22852ZM10.9746 6.03613L11.2762 6.43496C11.598 6.19164 11.7331 5.82108 11.8141 5.4488C11.896 5.07236 11.9449 4.57495 12.0053 3.97069L11.5078 3.9209L11.0103 3.87111C10.9473 4.50098 10.9037 4.92946 10.837 5.23625C10.7693 5.54719 10.6997 5.61718 10.6731 5.6373L10.9746 6.03613ZM11.5078 3.9209L12.0053 3.97069C12.0388 3.63609 12.061 3.42135 12.0935 3.26057C12.1243 3.10847 12.1554 3.05457 12.1777 3.02591L11.7832 2.71875L11.3887 2.41159C11.2338 2.61056 11.1597 2.83287 11.1133 3.06251C11.0687 3.28346 11.0418 3.55598 11.0103 3.87111L11.5078 3.9209ZM11.7832 2.71875L12.1777 3.02598C12.2146 2.97859 12.258 2.93933 12.3054 2.90948L12.0391 2.48633L11.7727 2.06318C11.6237 2.15698 11.4945 2.27577 11.3887 2.41152L11.7832 2.71875ZM12.0391 2.48633L12.3054 2.90951C12.3357 2.89045 12.392 2.86491 12.5467 2.84964C12.7102 2.8335 12.9261 2.83301 13.2627 2.83301V2.33301V1.83301C12.9464 1.83301 12.6726 1.83236 12.4485 1.85448C12.2156 1.87746 11.9866 1.92858 11.7728 2.06315L12.0391 2.48633ZM13.2627 2.33301V2.83301H14.7363V2.33301V1.83301H13.2627V2.33301ZM14 9.33301V8.83301C11.1465 8.83301 8.83301 11.1465 8.83301 14H9.33301H9.83301C9.83301 11.6988 11.6988 9.83301 14 9.83301V9.33301ZM9.33301 14H8.83301C8.83301 16.8535 11.1465 19.167 14 19.167V18.667V18.167C11.6988 18.167 9.83301 16.3012 9.83301 14H9.33301ZM14 18.667V19.167C16.8535 19.167 19.167 16.8535 19.167 14H18.667H18.167C18.167 16.3012 16.3012 18.167 14 18.167V18.667ZM18.667 14H19.167C19.167 11.1465 16.8535 8.83301 14 8.83301V9.33301V9.83301C16.3012 9.83301 18.167 11.6988 18.167 14H18.667Z" fill="#2863C3"/>
</svg>
